<svg xmlns="http://www.w3.org/2000/svg" width="104" height="104" viewBox="0 0 104 104" fill="none"><g clip-path="url(#a)"><path fill="url(#b)" d="M75.54 0H27.48C12.303 0 0 12.303 0 27.48v48.06c0 15.177 12.303 27.48 27.48 27.48h48.06c15.177 0 27.48-12.303 27.48-27.48V27.48C103.02 12.303 90.717 0 75.54 0z"/><path fill="#000" d="M61.47 78.73h-.02v-.03l.02.03z"/><path fill="#fff" d="M77.18 19.8v58.93H64.91l-.02-.03-26.08-22.24v22.27h-12.3V40.28h12.3l26.08 22.25V19.8h12.29z"/><path fill="#27DFBB" d="M32.9 33.92a7.06 7.06 0 1 0 0-14.12 7.06 7.06 0 0 0 0 14.12z"/></g><defs><linearGradient id="b" x1="99.95" x2="-81.77" y1="131.2" y2="-167.73" gradientUnits="userSpaceOnUse"><stop stop-color="#B152DD"/><stop offset=".29" stop-color="#483DE8"/></linearGradient><clipPath id="a"><path fill="#fff" d="M0 0h104v104H0z"/></clipPath></defs></svg>
